<svg width="212" height="32" fill="none" xmlns="http://www.w3.org/2000/svg"><path fill-rule="evenodd" clip-rule="evenodd" d="M159.958 24.913c1.682.59 3.446.89 5.22.885a6.157 6.157 0 004.498-1.67 6.171 6.171 0 001.845-4.742c.081-1.791-.676-3.514-2.033-4.626a11.986 11.986 0 00-2.303-1.006 20.542 20.542 0 01-2.815-1.218c-.682-.374-1.017-.8-1.017-1.327-.097-1.28 1.713-1.239 5.423.131 1.408.39 2.348-.864 2.821-3.767-2.79-1.365-5.083-2.018-6.887-1.97a6.326 6.326 0 00-4.458 1.796 6.462 6.462 0 00-1.845 4.616c-.137 1.728.656 3.393 2.059 4.336a6.692 6.692 0 002.282 1.085c.971.317 1.921.69 2.846 1.123.676.337 1.017.785 1.017 1.36 0 .579-.635.916-1.906 1.01-1.271.096-3.37-.531-6.298-1.88-.66.58-.991 1.554-.991 2.924 0 1.37.849 2.35 2.542 2.94zM19.104 22.226c0 .7-.54 1.49-1.612 2.37-1.072.88-3.06 1.318-5.952 1.318-2.653.095-5.23-.912-7.156-2.803-1.87-1.865-2.796-4.316-2.78-7.34.015-3.024.95-5.474 2.795-7.35 1.845-1.876 4.234-2.819 7.177-2.819 2.943 0 4.93.438 5.967 1.317 1.017.88 1.56 1.67 1.56 2.371a2.856 2.856 0 01-.67 1.866 1.92 1.92 0 01-1.474.822 8.515 8.515 0 01-2.542-.638 8.46 8.46 0 00-2.607-.637c-3.131 0-4.697 1.686-4.697 5.052 0 3.367 1.566 5.053 4.697 5.059a8.458 8.458 0 002.607-.638 8.512 8.512 0 012.542-.637 1.913 1.913 0 011.474.816 2.88 2.88 0 01.67 1.87zM40.92 15.77c0 3.025-.945 5.47-2.836 7.34-1.942 1.886-4.524 2.898-7.182 2.803-2.653.095-5.23-.912-7.156-2.803-1.876-1.87-2.811-4.315-2.811-7.34 0-3.024.93-5.474 2.795-7.35 1.866-1.876 4.27-2.819 7.208-2.819 2.938 0 5.337.938 7.197 2.82 1.855 1.875 2.785 4.325 2.785 7.35zm-6.607-3.635a4.24 4.24 0 00-3.355-1.433 4.275 4.275 0 00-3.37 1.438 5.307 5.307 0 00-1.27 3.64 5.209 5.209 0 001.27 3.615c.87.954 2.1 1.47 3.365 1.418a4.26 4.26 0 003.319-1.433 5.271 5.271 0 001.266-3.626 5.295 5.295 0 00-1.24-3.62h.015zm22.325-4.769l-3.889 4.843-3.913-4.843a3.17 3.17 0 00-2.542-1.185H43.53V25.74h2.765c1.845-.005 2.77-.843 2.77-2.524V15.25l3.685 4.462 3.69-4.489v7.993c.005 1.686.925 2.53 2.77 2.524 1.845-.005 2.765-.843 2.765-2.524V6.182H59.21a3.117 3.117 0 00-2.572 1.185zm14.278 11.855v3.994c0 1.681-.925 2.524-2.765 2.524h-2.77V6.245h9.027c1.515-.021 2.958.685 3.909 1.907a6.638 6.638 0 011.525 4.532 7.113 7.113 0 01-1.744 4.584 5.457 5.457 0 01-4.346 1.96l-2.836-.006zm0-9.099v4.463h1.591c1.566 0 2.348-.743 2.348-2.234s-.782-2.234-2.348-2.229h-1.59zm25.74 10.865l-2.541-3.562c1.89-1.101 2.836-2.914 2.841-5.432a6.068 6.068 0 00-1.525-3.963 4.813 4.813 0 00-3.858-1.849h-9.047V25.74h2.75c1.845-.005 2.77-.843 2.77-2.524v-4.894l4.371 6.201c.737.88 1.459 1.354 2.17 1.354a2.902 2.902 0 002.034-.774 2.538 2.538 0 001.016-1.834 3.58 3.58 0 00-.98-2.281zm-8.595-6.402v-4.463h1.591c1.566-.005 2.348.738 2.348 2.229s-.782 2.234-2.348 2.234h-1.59zm30.956 1.185c0 3.025-.945 5.47-2.836 7.34-1.942 1.886-4.529 2.898-7.187 2.803-2.648.095-5.225-.912-7.152-2.803-1.875-1.87-2.81-4.315-2.81-7.34 0-3.024.93-5.474 2.795-7.35 1.866-1.876 4.27-2.819 7.202-2.819 2.933 0 5.332.938 7.198 2.82 1.86 1.875 2.79 4.325 2.79 7.35zm-6.608-3.635a4.657 4.657 0 00-6.724 0 5.31 5.31 0 00-1.271 3.64 5.212 5.212 0 001.271 3.615 4.672 4.672 0 006.714 0 5.27 5.27 0 001.266-3.625 5.288 5.288 0 00-1.271-3.63h.015zm22.427-4.769l-3.889 4.843-3.913-4.843a3.134 3.134 0 00-2.542-1.185h-2.765V25.74h2.765c1.845-.005 2.765-.843 2.765-2.524V15.25l3.69 4.462 3.69-4.489v7.993c0 1.681.931 2.524 2.77 2.524 1.84 0 2.765-.843 2.765-2.524V6.182h-2.765a3.115 3.115 0 00-2.571 1.185zm8.743 18.373V6.182h11.625v2.303c0 1.538-.717 2.302-2.15 2.302h-3.94v2.814h5.53v2.318c0 1.544-.716 2.318-2.15 2.318h-3.38v2.898h6.1v2.303c0 1.533-.717 2.297-2.15 2.302h-9.485zm37.667.058a15.622 15.622 0 01-5.22-.885c-1.693-.59-2.541-1.57-2.541-2.94 0-1.37.33-2.345.991-2.924 2.922 1.349 5.021 1.976 6.297 1.88 1.276-.094 1.911-.431 1.906-1.011 0-.574-.34-1.022-1.016-1.36a25.354 25.354 0 00-2.842-1.122 6.716 6.716 0 01-2.287-1.085c-1.392-.948-2.175-2.613-2.033-4.336-.025-1.74.641-3.41 1.845-4.616a6.301 6.301 0 014.432-1.797c1.81-.036 4.112.622 6.903 1.987-.478 2.887-1.418 4.136-2.826 3.751-3.706-1.37-5.515-1.412-5.419-.131 0 .526.331.953 1.017 1.327.91.475 1.85.88 2.816 1.217.803.253 1.575.59 2.307 1.007 1.357 1.111 2.115 2.834 2.033 4.626a6.164 6.164 0 01-1.845 4.742 6.18 6.18 0 01-4.518 1.67zm25.958-2.687c1.891-1.87 2.836-4.315 2.836-7.34 0-3.024-.93-5.474-2.785-7.35-1.865-1.88-4.269-2.819-7.202-2.819s-5.337.938-7.202 2.82c-1.861 1.875-2.791 4.325-2.796 7.35-.005 3.024.935 5.468 2.811 7.339 1.926 1.891 4.503 2.898 7.156 2.803 2.659.095 5.241-.917 7.182-2.803zm-10.496-10.975a4.658 4.658 0 016.725 0 5.317 5.317 0 011.255 3.63 5.27 5.27 0 01-1.265 3.625 4.673 4.673 0 01-6.715 0 5.206 5.206 0 01-1.27-3.614 5.305 5.305 0 011.27-3.641z" fill="url(#paint0_linear_659_2835)"/><defs><linearGradient id="paint0_linear_659_2835" x1="205.144" y1="26.221" x2="196.107" y2="61.214" gradientUnits="userSpaceOnUse"><stop stop-color="#405EFD"/><stop offset="1" stop-color="#54C558"/></linearGradient></defs></svg>