<svg width="195" height="20" fill="none" xmlns="http://www.w3.org/2000/svg"><path d="M17.188 16.364c0 .69-.529 1.467-1.582 2.333-1.054.866-3.006 1.297-5.846 1.297-2.606.093-5.137-.897-7.03-2.76C.895 15.4-.014 12.989 0 10.012c.015-2.977.934-5.388 2.746-7.234C4.558.93 6.904.002 9.795.002c2.89 0 4.842.43 5.86 1.297 1 .866 1.533 1.644 1.533 2.333a2.815 2.815 0 01-.659 1.836c-.34.482-.873.783-1.447.81a8.35 8.35 0 01-2.497-.628 8.293 8.293 0 00-2.56-.628c-3.076 0-4.613 1.66-4.613 4.973 0 3.314 1.537 4.974 4.612 4.979a8.295 8.295 0 002.561-.628 8.346 8.346 0 012.496-.627 1.878 1.878 0 011.448.804c.43.513.664 1.167.66 1.84zM37.601 10.011c0 2.977-.928 5.383-2.785 7.224-1.907 1.857-4.443 2.852-7.054 2.759-2.606.093-5.137-.897-7.03-2.759-1.841-1.84-2.76-4.247-2.76-7.224 0-2.976.914-5.388 2.746-7.234C22.55.93 24.91.002 27.797.002c2.885 0 5.241.924 7.069 2.775C36.688 4.623 37.6 7.035 37.6 10.01zm-6.49-3.578a4.16 4.16 0 00-3.294-1.41 4.195 4.195 0 00-3.31 1.415 5.23 5.23 0 00-1.248 3.584 5.132 5.132 0 001.248 3.557 4.23 4.23 0 003.305 1.395 4.18 4.18 0 003.26-1.41 5.195 5.195 0 001.243-3.568 5.219 5.219 0 00-1.218-3.563h.015zM48.205 6.505l3.819-4.765A3.06 3.06 0 0154.55.573h2.716v16.766c0 1.654-.904 2.479-2.716 2.484-1.812.005-2.716-.825-2.721-2.484V9.472l-3.624 4.418-3.62-4.392v7.84c0 1.655-.908 2.48-2.72 2.485h-2.716V.573h2.716A3.11 3.11 0 0144.36 1.74l3.844 4.765zM65.033 13.408v3.93c0 1.655-.908 2.485-2.716 2.485h-2.72V.635h8.866c1.487-.02 2.905.674 3.839 1.877a6.543 6.543 0 011.497 4.46 7.01 7.01 0 01-1.712 4.512 5.355 5.355 0 01-4.268 1.929l-2.786-.005zm0-8.956v4.392h1.563c1.537 0 2.306-.731 2.306-2.199 0-1.467-.769-2.198-2.306-2.193h-1.563zM86.804 11.64l2.496 3.505c.574.602.919 1.4.964 2.246a2.5 2.5 0 01-.999 1.804 2.848 2.848 0 01-1.997.763c-.699 0-1.407-.467-2.131-1.333l-4.294-6.104v4.818c0 1.654-.908 2.479-2.72 2.484h-2.701V.573h8.886a4.723 4.723 0 013.789 1.82 5.98 5.98 0 011.498 3.9c-.005 2.479-.934 4.263-2.791 5.346zm-5.946-7.188v4.392h1.563c1.537 0 2.306-.731 2.306-2.199 0-1.467-.769-2.198-2.306-2.193h-1.563zM110.247 10.011c0 2.977-.928 5.383-2.785 7.224-1.907 1.857-4.448 2.852-7.059 2.759-2.601.093-5.132-.897-7.024-2.759-1.842-1.84-2.76-4.247-2.76-7.224 0-2.976.913-5.388 2.745-7.234S97.557.002 100.438.002c2.88 0 5.237.924 7.069 2.775 1.827 1.846 2.74 4.258 2.74 7.234zm-6.489-3.578a4.569 4.569 0 00-6.605 0 5.23 5.23 0 00-1.248 3.583 5.132 5.132 0 001.248 3.558 4.583 4.583 0 006.595 0 5.198 5.198 0 001.243-3.568 5.215 5.215 0 00-1.248-3.573h.015zM120.95 6.505l3.819-4.765a3.06 3.06 0 012.526-1.167h2.716v16.766c0 1.654-.908 2.484-2.716 2.484-1.807 0-2.72-.83-2.72-2.484V9.472l-3.625 4.418-3.624-4.392v7.84c0 1.655-.904 2.48-2.716 2.485h-2.715V.573h2.715c.959-.031 1.882.4 2.496 1.167l3.844 4.765zM132.343 19.823V.573h11.417v2.266c0 1.514-.704 2.266-2.112 2.266h-3.869v2.77h5.432v2.281c0 1.52-.704 2.282-2.112 2.282h-3.32v2.852h5.991v2.267c0 1.509-.704 2.26-2.112 2.266h-9.315zM152.541 19.88a15.319 15.319 0 01-5.127-.871c-1.662-.581-2.496-1.546-2.496-2.894s.324-2.308.973-2.878c2.876 1.327 4.938 1.944 6.186 1.851 1.248-.093 1.872-.425 1.872-.996 0-.565-.335-1.006-.999-1.338a24.551 24.551 0 00-2.795-1.104 6.569 6.569 0 01-2.242-1.068c-1.378-.929-2.156-2.567-2.022-4.268a6.36 6.36 0 011.813-4.543 6.203 6.203 0 014.378-1.769c1.772-.046 4.023.597 6.764 1.94-.464 2.857-1.388 4.092-2.771 3.708-3.644-1.349-5.421-1.39-5.326-.13 0 .519.329.939.998 1.307.894.467 1.817.871 2.766 1.198.784.249 1.543.58 2.261.99 1.333 1.095 2.077 2.79 1.997 4.554a6.077 6.077 0 01-1.812 4.667 6.04 6.04 0 01-4.418 1.644zM167.308 19.88a15.315 15.315 0 01-5.127-.871c-1.663-.581-2.496-1.546-2.496-2.894s.324-2.308.973-2.878c2.871 1.327 4.932 1.944 6.185 1.851 1.253-.093 1.877-.425 1.872-.995 0-.566-.334-1.007-.998-1.338a24.9 24.9 0 00-2.791-1.105 6.592 6.592 0 01-2.246-1.068c-1.368-.934-2.137-2.573-1.997-4.268-.025-1.712.629-3.356 1.812-4.543a6.182 6.182 0 014.353-1.769c1.778-.036 4.039.612 6.78 1.956-.47 2.841-1.393 4.07-2.776 3.692-3.639-1.348-5.416-1.39-5.322-.13 0 .519.325.939.999 1.307.893.467 1.817.866 2.766 1.198.788.249 1.547.58 2.266.99 1.333 1.095 2.077 2.79 1.997 4.554a6.077 6.077 0 01-1.812 4.667 6.065 6.065 0 01-4.438 1.644zM194.575 10.011c0 2.977-.929 5.383-2.786 7.224-1.907 1.857-4.443 2.852-7.054 2.759-2.605.093-5.136-.897-7.029-2.759-1.842-1.84-2.765-4.247-2.76-7.224.005-2.976.918-5.388 2.746-7.234 1.832-1.851 4.193-2.775 7.073-2.775 2.881 0 5.242.924 7.074 2.775 1.822 1.846 2.736 4.258 2.736 7.234zm-6.49-3.578a4.567 4.567 0 00-6.604 0 5.228 5.228 0 00-1.248 3.583 5.13 5.13 0 001.248 3.558 4.582 4.582 0 006.594 0 5.193 5.193 0 001.243-3.568 5.24 5.24 0 00-1.233-3.573z" fill="#FEFEFE"/></svg>