<svg width="109" height="11" fill="none" xmlns="http://www.w3.org/2000/svg"><path fill-rule="evenodd" clip-rule="evenodd" d="M4.553.865c.158-1.153 1.825-1.153 1.982 0l.255 1.871a1 1 0 001.17.849l1.946-.353c1.137-.207 1.66 1.36.627 1.878l-1.837.92a1 1 0 00-.44 1.354l.919 1.775c.533 1.031-.823 1.991-1.617 1.145L6.273 8.936a1 1 0 00-1.458 0l-1.284 1.368c-.795.846-2.151-.114-1.617-1.145l.92-1.775a1 1 0 00-.441-1.354L.556 5.11c-1.034-.518-.511-2.085.626-1.878l1.947.353a1 1 0 001.169-.849L4.553.865zm24.393 0c.158-1.153 1.825-1.153 1.982 0l.255 1.871a1 1 0 001.17.849l1.946-.353c1.138-.207 1.66 1.36.627 1.878l-1.837.92a1 1 0 00-.44 1.354l.919 1.775c.534 1.031-.822 1.991-1.617 1.145l-1.285-1.368a1 1 0 00-1.458 0l-1.284 1.368c-.795.846-2.151-.114-1.617-1.145l.92-1.775a1 1 0 00-.441-1.354l-1.837-.92c-1.034-.518-.511-2.085.626-1.878l1.947.353a1 1 0 001.169-.849l.255-1.871zm26.375 0c-.158-1.153-1.825-1.153-1.982 0l-.255 1.871a1 1 0 01-1.17.849l-1.946-.353c-1.137-.207-1.66 1.36-.627 1.878l1.837.92a1 1 0 01.44 1.354L50.7 9.159c-.533 1.031.823 1.991 1.617 1.145l1.285-1.368a1 1 0 011.458 0l1.284 1.368c.795.846 2.151-.114 1.617-1.145l-.92-1.775a1 1 0 01.441-1.354l1.837-.92c1.034-.518.511-2.085-.626-1.878l-1.947.353a1 1 0 01-1.169-.849L55.321.865zm22.411 0c.158-1.153 1.824-1.153 1.982 0l.255 1.871a1 1 0 001.17.849l1.946-.353c1.137-.207 1.66 1.36.626 1.878l-1.837.92a1 1 0 00-.44 1.354l.92 1.775c.533 1.031-.823 1.991-1.617 1.145l-1.285-1.368a1 1 0 00-1.458 0l-1.284 1.368c-.795.846-2.151-.114-1.617-1.145l.919-1.775a1 1 0 00-.44-1.354l-1.837-.92c-1.034-.518-.511-2.085.626-1.878l1.946.353a1 1 0 001.17-.849l.255-1.871zm26.374 0c-.157-1.153-1.824-1.153-1.981 0l-.256 1.871a1 1 0 01-1.169.849l-1.946-.353c-1.138-.207-1.66 1.36-.627 1.878l1.837.92a1 1 0 01.44 1.354l-.919 1.775c-.534 1.031.822 1.991 1.617 1.145l1.285-1.368a1 1 0 011.458 0l1.284 1.368c.795.846 2.151-.114 1.617-1.145l-.919-1.775a.999.999 0 01.44-1.354l1.837-.92c1.033-.518.511-2.085-.626-1.878l-1.947.353a1 1 0 01-1.169-.849l-.256-1.871z" fill="url(#paint0_linear_659_2232)"/><defs><linearGradient id="paint0_linear_659_2232" x1="108.521" y1="5.369" x2=".139" y2="5.369" gradientUnits="userSpaceOnUse"><stop offset=".284" stop-color="#C4C4C4"/><stop offset=".291" stop-color="orange"/><stop offset="1" stop-color="orange"/></linearGradient></defs></svg>